<svg xmlns="http://www.w3.org/2000/svg" viewBox="0 0 471.9 147.7"><defs><style>.cls-1{fill:#fff;}.cls-2{fill:#e71e77;}</style></defs><title>saludHUb3</title><g id="Capa_2" data-name="Capa 2"><rect class="cls-1" y="75.3" width="471.9" height="72.46" rx="7.1"/><polygon class="cls-1" points="7.6 71.2 34.6 54.6 442.3 54.6 467.1 69.8 7.6 71.2"/><polygon class="cls-2" points="71.7 138.4 56.8 138.4 56.7 108.3 71.3 108.3 71.2 96 90 96 90.1 108.3 103.7 108.3 103.8 138.3 71.7 138.4"/><polygon class="cls-2" points="173.8 137 158.9 137 158.8 106.9 173.4 106.9 173.4 94.7 192.2 94.7 192.3 106.9 205.8 106.9 206 136.9 173.8 137"/><polygon class="cls-2" points="279.9 136.7 265 136.7 264.9 106.5 279.5 106.5 279.4 94.3 298.2 94.3 298.4 106.5 311.9 106.5 312.1 136.5 279.9 136.7"/><polygon class="cls-2" points="389 138.4 374.2 138.4 374 108.2 388.6 108.2 388.6 96 407.4 96 407.5 108.2 421.1 108.2 421.2 138.2 389 138.4"/></g><g id="Capa_3" data-name="Capa 3"><path class="cls-1" d="M121.5,262.9a38.8,38.8,0,0,1-10.3-1.3,27.1,27.1,0,0,1-8-3.4l4-9.1a30.4,30.4,0,0,0,6.8,3.1,24.6,24.6,0,0,0,7.6,1.2,14.5,14.5,0,0,0,4-.5,4.9,4.9,0,0,0,2.3-1.2,2.4,2.4,0,0,0,.7-1.8,2.7,2.7,0,0,0-1.3-2.4,10.8,10.8,0,0,0-3.6-1.4,43.2,43.2,0,0,0-4.8-1.1l-5.3-1.5a26.2,26.2,0,0,1-4.8-2.2,12.4,12.4,0,0,1-3.5-3.7,10.9,10.9,0,0,1-1.4-5.7,12.7,12.7,0,0,1,2.2-7.1,14.5,14.5,0,0,1,6.4-5.1,25.9,25.9,0,0,1,10.7-1.9,34.4,34.4,0,0,1,8.4,1,23.6,23.6,0,0,1,7.3,2.8l-3.8,9.1a26.2,26.2,0,0,0-6.1-2.5,20.6,20.6,0,0,0-5.9-.9,11.5,11.5,0,0,0-4.1.6,4,4,0,0,0-2.2,1.4,2.7,2.7,0,0,0-.7,2,2.4,2.4,0,0,0,1.3,2.2,12.3,12.3,0,0,0,3.6,1.4l4.8,1.1a34.6,34.6,0,0,1,5.3,1.4,20.9,20.9,0,0,1,4.8,2.2,11,11,0,0,1,3.5,3.6,11.2,11.2,0,0,1,1.3,5.7,12.5,12.5,0,0,1-2.1,7,15.8,15.8,0,0,1-6.4,5.1A25.6,25.6,0,0,1,121.5,262.9Z" transform="translate(-60 -217.8)"/><path class="cls-1" d="M141.8,262.1,161,218.7h12.1l19.2,43.4H179.5l-15-37.4h4.9l-15.1,37.4Zm10.5-8.5,3.2-9h21.2l3.1,9Z" transform="translate(-60 -217.8)"/><path class="cls-1" d="M196.4,262.1V218.7h12.3v33.6h20.7v9.8Z" transform="translate(-60 -217.8)"/><path class="cls-1" d="M254.5,262.9c-6.4,0-11.4-1.7-15-5.2s-5.4-8.5-5.4-15v-24h12.3v23.6c0,3.8.8,6.4,2.2,8a8.6,8.6,0,0,0,12.1,0c1.4-1.6,2.1-4.2,2.1-8V218.7h12.1v24q0,9.8-5.4,15C265.9,261.2,260.9,262.9,254.5,262.9Z" transform="translate(-60 -217.8)"/><path class="cls-1" d="M283.9,262.1V218.7h20.6a29.5,29.5,0,0,1,12.6,2.6,20.7,20.7,0,0,1,8.5,7.5,23.1,23.1,0,0,1,0,23.1,20.7,20.7,0,0,1-8.5,7.5,28.1,28.1,0,0,1-12.6,2.7Zm12.3-9.8H304a14.4,14.4,0,0,0,6.4-1.4,10,10,0,0,0,4.3-4.1,13.8,13.8,0,0,0,0-12.9,9.3,9.3,0,0,0-4.3-4,13.1,13.1,0,0,0-6.4-1.4h-7.8Z" transform="translate(-60 -217.8)"/><path class="cls-1" d="M348.1,262.1H335.8V218.7h12.3Zm17.6-17H347.2V235h18.5Zm-.9-26.4h12.3v43.4H364.8Z" transform="translate(-60 -217.8)"/><path class="cls-1" d="M406.5,262.9c-6.4,0-11.4-1.7-15-5.2s-5.4-8.5-5.4-15v-24h12.3v23.6c0,3.8.7,6.4,2.2,8a7.4,7.4,0,0,0,6,2.5,7.3,7.3,0,0,0,6-2.5c1.5-1.6,2.2-4.2,2.2-8V218.7h12.1v24q0,9.8-5.4,15C417.9,261.2,412.9,262.9,406.5,262.9Z" transform="translate(-60 -217.8)"/><path class="cls-1" d="M435.9,262.1V218.7h22.2c5.7,0,9.9,1,12.8,3.1a9.7,9.7,0,0,1,4.2,8.2,10,10,0,0,1-1.8,5.9,11.7,11.7,0,0,1-5,3.9,17.3,17.3,0,0,1-7.5,1.5l1.2-3a22,22,0,0,1,8,1.4,12.1,12.1,0,0,1,5.3,4,11.3,11.3,0,0,1,1.9,6.5,9.9,9.9,0,0,1-4.6,8.7c-3,2.1-7.4,3.2-13.3,3.2Zm12.1-8.9h10.3a9,9,0,0,0,4.8-1.1,4.1,4.1,0,0,0,0-6.6,9,9,0,0,0-4.8-1.1H447.2v-8.5h9.3a7.5,7.5,0,0,0,4.6-1.1,3.4,3.4,0,0,0,1.6-3.1,3.3,3.3,0,0,0-1.6-3.1,8.2,8.2,0,0,0-4.6-1.1H448Z" transform="translate(-60 -217.8)"/></g></svg>